<svg preserveAspectRatio="none" overflow="visible" style="display: block;" width="65" height="65" viewBox="0 0 65 65" fill="none" xmlns="http://www.w3.org/2000/svg">
<g id="Email logo">
<rect id="Rectangle 7" width="65" height="65" rx="15" fill="white"/>
<path id="email Vector" d="M52.2306 14H12.7694C9.03654 14 6 17.0398 6 20.7744V44.2266C6 47.9612 9.03654 51 12.7694 51H52.2306C55.9625 51 59 47.9612 59 44.2266V20.7744C59 17.0398 55.9625 14 52.2306 14ZM52.2306 17.6953C52.322 17.6953 52.3996 17.7395 52.4899 17.7474L34.4082 32.0587C33.2857 32.9501 31.7163 32.9501 30.5909 32.0587L12.5091 17.7474C12.5995 17.7395 12.677 17.6953 12.7694 17.6953H52.2306ZM55.3074 44.2266C55.3074 45.9249 53.9267 47.3057 52.2306 47.3057H12.7694C11.0724 47.3057 9.69256 45.9249 9.69256 44.2266V20.7744C9.69256 20.6073 9.76229 20.4638 9.78684 20.3046L28.3007 34.957C29.5371 35.9348 31.0181 36.4253 32.5 36.4253C33.9819 36.4253 35.4629 35.9348 36.6993 34.957L55.2122 20.3046C55.2377 20.4638 55.3074 20.6073 55.3074 20.7744V44.2266Z" fill="#12091F"/>
</g>
</svg>
